<svg xmlns="http://www.w3.org/2000/svg" viewBox="0 0 32 32" width="32" height="32">
  <defs>
    <linearGradient id="bg" x1="0" y1="0" x2="1" y2="1">
      <stop offset="0%" stop-color="#007aff"/>
      <stop offset="100%" stop-color="#5856d6"/>
    </linearGradient>
  </defs>

  <!-- Rounded square background -->
  <rect width="32" height="32" rx="7" ry="7" fill="url(#bg)"/>

  <!-- Simplified database cylinder -->
  <g transform="translate(16, 16)">
    <!-- Body -->
    <path d="M-7,2 L-7,-6 C-7,-6 -7,-9 0,-9 C7,-9 7,-6 7,-6 L7,2 C7,2 7,5 0,5 C-7,5 -7,2 -7,2 Z" fill="white" opacity="0.85"/>
    <!-- Middle line -->
    <ellipse cx="0" cy="-1.5" rx="7" ry="3" fill="none" stroke="white" stroke-opacity="0.3" stroke-width="0.7"/>
    <!-- Bottom -->
    <ellipse cx="0" cy="2" rx="7" ry="3" fill="white" opacity="0.7"/>
    <!-- Top cap -->
    <ellipse cx="0" cy="-6" rx="7" ry="3" fill="white" opacity="0.95"/>
  </g>

  <!-- AI Sparkle -->
  <g transform="translate(23, 7)">
    <path d="M0,-4 C0.5,-1 1,-0.5 4,0 C1,0.5 0.5,1 0,4 C-0.5,1 -1,0.5 -4,0 C-1,-0.5 -0.5,-1 0,-4 Z" fill="white" opacity="0.9"/>
  </g>

  <!-- Small sparkle -->
  <g transform="translate(26.5, 4)">
    <path d="M0,-1.8 C0.2,-0.5 0.5,-0.2 1.8,0 C0.5,0.2 0.2,0.5 0,1.8 C-0.2,0.5 -0.5,0.2 -1.8,0 C-0.5,-0.2 -0.2,-0.5 0,-1.8 Z" fill="white" opacity="0.6"/>
  </g>
</svg>
